<svg viewBox="0 0 247 247" xmlns="http://www.w3.org/2000/svg">
    <path id="Path" fill="#fab608" stroke="none" d="M 246.399994 123.5 C 246.399994 191.600006 191.299988 246.700012 123.200012 246.700012 C 55.100006 246.700012 0 191.600006 0 123.5 C 0 55.399994 55.100006 0.299988 123.200012 0.299988 C 191.299988 0.299988 246.399994 55.399994 246.399994 123.5"/>
    <g id="Group" fill="#000000" stroke="none" >
        <path id="path1" d="M 94 62.899994 L 77.899994 62.899994 L 77.899994 96.299988 L 77.899994 108.799988 C 71.100006 99.299988 63.5 94.700012 53.199997 94.700012 C 32.199997 94.700012 19.899994 109.5 19.899994 134.200012 C 19.899994 158.399994 33.5 173.700012 52.399994 173.700012 C 63.899994 173.700012 71.699997 169.600006 77.5 160.100006 L 77.100006 170.799988 L 98.100006 170.799988 L 98.100006 62.899994 L 94 62.899994 Z M 59.800003 154.700012 C 48.300003 154.700012 41.300003 146.899994 41.300003 133.700012 C 41.300003 120.100006 48.300003 112.299988 59.800003 112.299988 C 70.899994 112.299988 78.300003 120.100006 78.300003 133.700012 C 78.300003 146.899994 71.399994 154.700012 59.800003 154.700012 Z"/>
        <path id="path2" d="M 145.5 173.600006 C 121.200012 173.600006 105 156.600006 105 134.700012 C 105 113.200012 121.600006 95.799988 145.5 95.799988 C 169.399994 95.799988 185.600006 112.399994 185.600006 134.700012 C 185.600006 156.600006 169 173.600006 145.5 173.600006 Z M 145.100006 115.200012 C 133.399994 115.200012 126.100006 122.899994 126.100006 134.600006 C 126.100006 146.299988 133.399994 154 145.100006 154 C 156.799988 154 164.100006 146.299988 164.100006 134.600006 C 164.200012 122.899994 156.899994 115.200012 145.100006 115.200012 Z"/>
        <path id="path3" d="M 203 62.899994 C 209.899994 62.899994 215.200012 68.200012 215.200012 75.100006 C 215.200012 82 209.5 87.700012 203 87.700012 C 196.100006 87.700012 190.799988 81.600006 190.799988 75.100006 C 190.899994 68.600006 196.100006 62.899994 203 62.899994 Z M 192.5 98.899994 L 213.600006 98.899994 L 213.600006 171 L 192.5 171 L 192.5 98.899994 Z"/>
    </g>
</svg>
